<svg width="40" height="40" viewBox="0 0 40 40" fill="none" xmlns="http://www.w3.org/2000/svg">
<g clip-path="url(#clip0_15135_11507)">
<path d="M19.184 40.016H20.852C29.92 40.016 34.436 40.016 37.236 37.216C40.02 34.416 40.02 29.884 40.02 20.848V19.148C40.02 10.148 40.02 5.61599 37.236 2.81599C34.436 0.0159912 29.904 0.0159912 20.852 0.0159912H19.184C10.116 0.0159912 5.60002 0.0159912 2.80002 2.81599C0.0200195 5.61599 0.0200195 10.152 0.0200195 19.184V20.884C0.0200195 29.884 0.0200195 34.416 2.82002 37.216C5.62002 40.016 10.152 40.016 19.184 40.016Z" fill="#0077FF"/>
<path d="M21.304 28.832C12.188 28.832 6.98797 22.584 6.77197 12.184H11.34C11.492 19.816 14.856 23.052 17.524 23.716V12.184H21.824V18.768C24.456 18.484 27.224 15.484 28.156 12.184H32.456C31.744 15.644 29.624 18.652 26.604 20.484C29.976 22.16 32.468 25.2 33.452 28.832H28.72C27.828 25.64 25.108 23.296 21.82 22.88V28.832H21.304Z" fill="white"/>
</g>
<defs>
<clipPath id="clip0_15135_11507">
<rect width="40" height="40" fill="white"/>
</clipPath>
</defs>
</svg>
